<?xml version="1.0" encoding="UTF-8"?>
<svg version="1.1" xmlns="http://www.w3.org/2000/svg" width="1024" height="1024">
<path d="M0 0 C337.92 0 675.84 0 1024 0 C1024 337.92 1024 675.84 1024 1024 C686.08 1024 348.16 1024 0 1024 C0 686.08 0 348.16 0 0 Z " fill="#FDFEFE" transform="translate(0,0)"/>
<path d="M0 0 C0.70560059 0.31694824 1.41120117 0.63389648 2.13818359 0.96044922 C16.88769965 7.70098854 30.6732953 16.46142839 43 27 C44.15596635 27.97169171 45.31223959 28.94301839 46.46875 29.9140625 C56.3687113 38.2672365 64.95424092 46.80057813 73 57 C73.74507812 57.93972656 74.49015625 58.87945312 75.2578125 59.84765625 C100.9557329 93.1116891 115.18992042 134.44560316 115.18530273 176.40185547 C115.18747543 178.6001362 115.2056552 180.79790215 115.22460938 182.99609375 C115.40235833 227.31142169 98.98206614 271.45429563 70 305 C69.31808594 305.79148437 68.63617187 306.58296875 67.93359375 307.3984375 C63.62515746 312.28492875 59.13432924 316.98597831 54.5625 321.625 C53.78181152 322.42526611 53.78181152 322.42526611 52.98535156 323.24169922 C51.6956768 324.5343495 50.35187953 325.77255244 49 327 C48.34 327 47.68 327 47 327 C47 327.66 47 328.32 47 329 C40.08191227 335.23497314 32.15488515 340.33269025 24.3125 345.3125 C23.54188232 345.80347168 22.77126465 346.29444336 21.97729492 346.80029297 C17.11709876 349.83694889 12.19716936 352.42832173 6.9699707 354.78271484 C4.62811515 355.9410366 4.62811515 355.9410366 3.875 359.3125 C3.936875 360.6428125 3.936875 360.6428125 4 362 C3.01 361.34 2.02 360.68 1 360 C1 359.34 1 358.68 1 358 C0.45811035 358.21615967 -0.0837793 358.43231934 -0.64208984 358.6550293 C-51.72154591 378.90288696 -107.03422681 381.93618058 -158.34765625 360.06640625 C-180.37180379 350.38961182 -199.59741251 337.71899011 -217 321 C-217.57041016 320.45682129 -218.14082031 319.91364258 -218.72851562 319.35400391 C-226.98395659 311.45720095 -234.41664076 303.34212589 -241 294 C-241.62600098 293.11658936 -241.62600098 293.11658936 -242.26464844 292.21533203 C-271.52188526 250.56640407 -283.68371188 196.57769898 -275.47827148 146.1887207 C-265.66503738 93.13237568 -235.74951493 46.60721832 -191.34057617 16.03588867 C-172.04785694 3 -172.04785694 3 -167 3 C-167.495 -1.455 -167.495 -1.455 -168 -6 C-166.9171875 -4.7315625 -166.9171875 -4.7315625 -165.8125 -3.4375 C-163.35557362 -0.73006956 -163.35557362 -0.73006956 -160.9140625 -1.140625 C-156.7373574 -2.37236109 -152.65736754 -3.83408629 -148.5625 -5.3125 C-134.15037274 -10.40600512 -120.14387069 -13.98367727 -105 -16 C-104.32114746 -16.09716309 -103.64229492 -16.19432617 -102.94287109 -16.29443359 C-68.11535206 -20.81527445 -31.82652339 -14.35529594 0 0 Z " fill="#FDFEFD" transform="translate(593,269)"/>
<path d="M0 0 C0 3.84280572 -1.1723084 4.85795358 -3.5 7.875 C-13.23379142 20.97355883 -21.08854573 34.9597542 -25.38671875 50.78125 C-26.01243262 53.04497916 -26.77226533 55.22640005 -27.5625 57.4375 C-36.23437238 83.4983932 -31.22185724 113.42059716 -19.234375 137.5546875 C-15.7014868 143.80885445 -11.6165445 149.50689642 -7 155 C-6.36835938 155.78890625 -5.73671875 156.5778125 -5.0859375 157.390625 C5.24391104 169.69359067 19.13316822 177.39332955 32.72720337 185.54867554 C78.42514222 212.98073301 78.42514222 212.98073301 86 233 C86.46054195 236.07027964 86.61335374 238.94614402 86 242 C83.62532549 244.37467451 82.89525478 244.39845809 79.625 244.5625 C69.63100962 244.34649156 61.85781398 237.00866302 54.515625 230.93359375 C49.00440632 226.69748623 43.16370444 222.48555085 36 223 C35.46767308 226.0418681 35.53119971 228.19206759 37.1015625 230.8984375 C49.54642994 246.40854322 72.01068351 252.68839527 91 255 C100.48215304 255.65468698 109.99993079 255.56685897 119.5 255.5625 C123.23679729 255.56613219 126.97313626 255.57586037 130.70983887 255.60325623 C133.01161987 255.61978771 135.31355213 255.6231283 137.61535645 255.61024475 C151.66167389 255.70182961 164.86534572 259.570138 175.375 269.24609375 C181.65100276 276.01995249 186.61236472 283.66862372 187.1875 293.0625 C187.125625 293.701875 187.06375 294.34125 187 295 C186.38125 294.43732422 186.38125 294.43732422 185.75 293.86328125 C172.54205511 282.15891937 159.41540362 279.18370914 142 280 C139.64420828 280.20710811 137.29645136 280.46001438 134.94580078 280.71875 C124.35985681 281.87687037 113.83489065 282.24725685 103.19390869 282.29956055 C101.55158038 282.30803914 99.90926853 282.32152707 98.26702881 282.34057617 C86.84222347 282.45909866 76.17276863 281.38564194 65 279 C64.05842041 278.80124268 63.11684082 278.60248535 62.14672852 278.39770508 C50.84790608 275.86400189 40.37741214 272.10659791 30 267 C29.36610352 266.69191406 28.73220703 266.38382813 28.07910156 266.06640625 C-11.99107746 246.36847021 -39.82040517 211.38715959 -54.23828125 169.62890625 C-62.34539712 144.79145578 -64.12199088 116.41203761 -58 91 C-57.83902832 90.26974609 -57.67805664 89.53949219 -57.51220703 88.78710938 C-49.52938734 52.6228657 -28.85407111 22.83855805 0 0 Z " fill="#419DD0" transform="translate(410,336)"/>
<path d="M0 0 C0.680625 0.70125 1.36125 1.4025 2.0625 2.125 C3.03941274 3.08563086 4.01875902 4.04379068 5 5 C5.4846875 5.49242187 5.969375 5.98484375 6.46875 6.4921875 C15.03628753 14.59774996 25.8990955 17.19585764 37.3125 17.1875 C38.71302612 17.1884668 38.71302612 17.1884668 40.1418457 17.18945312 C46.71129516 17.14125708 53.1564996 16.67396361 59.6875 16 C105.82493646 11.52553314 152.14363954 18.76780757 189 49 C192.63394648 52.06460918 196.11327923 55.27292915 199.52783203 58.57910156 C201.0138435 60.01336139 202.51960083 61.42457776 204.02734375 62.8359375 C224.43291253 82.23515935 237.697816 108.00956947 245 135 C245.19754883 135.67788574 245.39509766 136.35577148 245.59863281 137.05419922 C253.66872812 165.43161291 250.91003154 199.48158625 241 227 C240.35417969 228.82917969 240.35417969 228.82917969 239.6953125 230.6953125 C233.66723704 246.73612347 225.14263452 261.00856893 214 274 C212.80503906 275.40572266 212.80503906 275.40572266 211.5859375 276.83984375 C205.63548657 283.63889851 199.11114389 289.44441883 192 295 C191.34 294.67 190.68 294.34 190 294 C190.60585938 293.13761719 191.21171875 292.27523438 191.8359375 291.38671875 C205.45308627 271.68793846 214.61213878 251.58080816 219 228 C219.25910156 226.83452637 219.25910156 226.83452637 219.5234375 225.64550781 C224.13564398 200.0420911 217.19073014 172.60422492 203.12890625 151.14453125 C190.77153057 133.51600136 176.1044971 123.00007255 157.67358398 112.54150391 C144.99283944 105.34000319 132.93141053 97.72562359 122 88 C121.49839355 87.55962402 120.99678711 87.11924805 120.47998047 86.66552734 C111.99212018 79.11288162 103.63293025 70.0865167 102.703125 58.20703125 C103 55 103 55 105 53 C114.36854526 51.61206737 121.84496594 56.64139974 129.15234375 61.96484375 C131.93992236 64.04035033 134.69133395 66.1581195 137.43359375 68.29296875 C142.8028138 72.42178422 146.0081587 74.41128478 153 74 C153.88556744 72.31026274 153.88556744 72.31026274 154 70 C148.6057271 58.69771393 135.87817038 53.60419175 125 49 C123.90558594 48.50693359 123.90558594 48.50693359 122.7890625 48.00390625 C109.49742503 42.40284505 94.05786635 41.87950478 79.8515625 41.82421875 C77.5234284 41.80102654 75.19530336 41.77690945 72.8671875 41.75195312 C69.24472898 41.716886 65.62260757 41.68749114 62 41.67407227 C58.47095382 41.65848884 54.9428544 41.61823047 51.4140625 41.57421875 C49.815056 41.57708138 49.815056 41.57708138 48.18374634 41.58000183 C34.73940991 41.36431342 22.57346835 36.47810663 12.75 27.25 C5.80120963 19.88007082 0 10.34921689 0 0 Z " fill="#96C15B" transform="translate(425,263)"/>
<path d="M0 0 C19.756246 -1.13978342 40.45637436 9.8905788 55.15234375 22.37890625 C59.18754405 26.09306181 63.02361368 29.99111927 66.87011719 33.89892578 C78.19520172 45.339318 91.0231599 55.65228257 107.6875 56.5 C124.79400847 55.99492979 138.99681771 45.9309507 151.86279297 35.61914062 C162.36237165 27.3031357 162.36237165 27.3031357 169 26.75 C169.99 26.87375 169.99 26.87375 171 27 C172.01043216 30.17564392 172.16482094 31.61001689 170.84765625 34.7265625 C167.17745717 40.68561659 163.33722905 46.41431596 159.16796875 52.03515625 C149.04624105 65.87730278 139.57517374 80.30741067 135 97 C134.46632813 98.76537109 134.46632813 98.76537109 133.921875 100.56640625 C129.15119167 120.03713065 133.56787493 141.29253736 142 159 C142.62648438 160.34964844 142.62648438 160.34964844 143.265625 161.7265625 C149.09473949 173.35129082 157.73240694 182.53616644 167.98046875 190.390625 C168.64691406 190.92171875 169.31335938 191.4528125 170 192 C170 192.33 170 192.66 170 193 C144.11520679 191.80715239 123.40652281 176.8947987 106.36279297 158.52685547 C103.15323395 154.9309074 100.50181501 151.11056159 98 147 C97.06994141 145.4840625 97.06994141 145.4840625 96.12109375 143.9375 C87.2755857 128.98149421 80.64578578 113.38340043 74.7331543 97.06640625 C64.87474659 70.02882091 52.03907857 45.80160058 32 25 C31.05447266 23.95972656 31.05447266 23.95972656 30.08984375 22.8984375 C25.80255415 18.31904685 20.98323231 14.53412597 16 10.75 C15.33524658 10.24210937 14.67049316 9.73421875 13.9855957 9.2109375 C9.52662191 5.89507945 5.03224654 3.35886557 0 1 C0 0.67 0 0.34 0 0 Z " fill="#6BB9DF" transform="translate(405,377)"/>
<path d="M0 0 C5.94163744 3.53728839 9.84408077 9.53224232 12 16 C13.04652459 25.94860716 11.90290867 33.77094511 6 42 C0.40446675 47.70655573 -5.78313662 50.21505219 -13.81103516 50.3293457 C-14.49214355 50.32378662 -15.17325195 50.31822754 -15.875 50.3125 C-16.58317871 50.30758545 -17.29135742 50.3026709 -18.02099609 50.29760742 C-26.45830423 50.10810327 -31.86383034 47.99671126 -38 42 C-44.03511812 34.12081801 -44.73496044 26.66117359 -44 17 C-42.79208701 10.4223647 -39.02200746 5.30588939 -34 1 C-23.03063758 -6.13440422 -11.51535833 -5.70159787 0 0 Z " fill="#1E3448" transform="translate(330,687)"/>
<path d="M0 0 C0.70560059 0.31694824 1.41120117 0.63389648 2.13818359 0.96044922 C16.88769965 7.70098854 30.6732953 16.46142839 43 27 C44.15596635 27.97169171 45.31223959 28.94301839 46.46875 29.9140625 C56.3687113 38.2672365 64.95424092 46.80057813 73 57 C73.74507812 57.93972656 74.49015625 58.87945312 75.2578125 59.84765625 C100.9557329 93.1116891 115.18992042 134.44560316 115.18530273 176.40185547 C115.18747543 178.6001362 115.2056552 180.79790215 115.22460938 182.99609375 C115.40235833 227.31142169 98.98206614 271.45429563 70 305 C69.31808594 305.79148437 68.63617187 306.58296875 67.93359375 307.3984375 C63.62515746 312.28492875 59.13432924 316.98597831 54.5625 321.625 C54.04204102 322.15851074 53.52158203 322.69202148 52.98535156 323.24169922 C51.6956768 324.5343495 50.35187953 325.77255244 49 327 C48.34 327 47.68 327 47 327 C47 327.66 47 328.32 47 329 C34.28727613 340.45742797 18.53184426 349.93161578 3 357 C2.67 355.35 2.34 353.7 2 352 C3.63195312 351.1646875 3.63195312 351.1646875 5.296875 350.3125 C37.13994331 333.85085212 61.02683789 311.51792368 81 282 C81.72058594 280.95585938 82.44117188 279.91171875 83.18359375 278.8359375 C89.88882471 268.60944843 94.43683708 257.30353487 99 246 C99.28004883 245.31180176 99.56009766 244.62360352 99.84863281 243.91455078 C107.92266933 223.58742637 110.23311151 200.94283754 110.25 179.25 C110.25067474 178.47132568 110.25134949 177.69265137 110.25204468 176.89038086 C110.21764165 151.8501176 105.8177129 128.10938574 96 105 C95.66403809 104.20899902 95.32807617 103.41799805 94.98193359 102.60302734 C81.52113095 71.52255614 59.80674409 43.56152706 32 24 C31.43522949 23.59620117 30.87045898 23.19240234 30.28857422 22.77636719 C-10.66941309 -6.36092016 -62.12552979 -18.08289417 -111.8125 -10.375 C-128.20925161 -7.60615874 -143.96229866 -3.12711223 -159 4 C-159.99 2.68 -160.98 1.36 -162 0 C-143.7845956 -8.33911974 -124.79861933 -13.2632578 -105 -16 C-104.29149902 -16.103125 -103.58299805 -16.20625 -102.85302734 -16.3125 C-68.0769986 -20.84252468 -31.77133467 -14.33040317 0 0 Z " fill="#EFF3F4" transform="translate(593,269)"/>
<path d="M0 0 C1.125 1.75 1.125 1.75 2 4 C1.49609375 5.921875 1.49609375 5.921875 0 8 C-2.34708 9.30228903 -4.6188255 10.41559413 -7.0625 11.5 C-29.45392576 22.0976241 -48.79876325 39.66714505 -64 59 C-64.74378906 59.9384375 -65.48757813 60.876875 -66.25390625 61.84375 C-92.1078213 95.29646791 -105.50616801 135.95593922 -105.3125 178.125 C-105.31001251 178.98949768 -105.30752502 179.85399536 -105.30496216 180.74468994 C-105.24870525 193.37867603 -104.97553981 205.66349181 -102 218 C-101.77957031 218.93811523 -101.55914062 219.87623047 -101.33203125 220.84277344 C-88.88772107 272.34839058 -59.28620896 314.16737032 -15 343.0625 C23.93878525 366.2322865 72.19076069 376.15985107 117 368 C118.1139917 367.8146167 118.1139917 367.8146167 119.25048828 367.62548828 C131.92269248 365.50703469 143.85065026 362.03014657 155.93554688 357.69262695 C158 357 158 357 160.20507812 356.53198242 C160.79740234 356.35642822 161.38972656 356.18087402 162 356 C162.33 355.34 162.66 354.68 163 354 C164.32 355.32 165.64 356.64 167 358 C153.3981231 364.9079195 138.89152438 368.80983724 124 371.8125 C122.46158447 372.1228418 122.46158447 372.1228418 120.89208984 372.43945312 C71.8854937 381.86166323 18.71205213 371.05014255 -22.6953125 343.27734375 C-32.49062205 336.5727317 -41.4467657 329.21725159 -50 321 C-50.57041016 320.45682129 -51.14082031 319.91364258 -51.72851562 319.35400391 C-59.98395659 311.45720095 -67.41664076 303.34212589 -74 294 C-74.62600098 293.11658936 -74.62600098 293.11658936 -75.26464844 292.21533203 C-104.52188526 250.56640407 -116.68371188 196.57769898 -108.47827148 146.1887207 C-98.66503738 93.13237568 -68.74951493 46.60721832 -24.34057617 16.03588867 C-5.04785694 3 -5.04785694 3 0 3 C0 2.01 0 1.02 0 0 Z " fill="#EFF3F3" transform="translate(426,269)"/>
<path d="M0 0 C7.31565594 3.72433393 10.77042564 8.50868861 14.4375 15.75 C16.69811651 22.87436718 16.03787753 29.24470586 12.9375 36 C9.10376893 43.05116494 4.07210777 47.27123124 -3.5625 49.75 C-11.41958439 50.59436993 -18.93081532 50.834637 -25.69921875 46.296875 C-32.1370292 40.95227764 -35.87215283 35.29578891 -36.9140625 26.92578125 C-37.27676642 19.47126124 -35.90024122 13.86425333 -31.5625 7.75 C-23.27496336 -1.36629031 -11.75930466 -4.07655895 0 0 Z " fill="#76BFD6" transform="translate(522.5625,365.25)"/>
<path d="M0 0 C-0.54339792 4.56454251 -1.79463821 7.9728176 -4 12 C-4.67546875 11.79503906 -5.3509375 11.59007812 -6.046875 11.37890625 C-7.38492188 10.97478516 -7.38492188 10.97478516 -8.75 10.5625 C-9.63171875 10.29566406 -10.5134375 10.02882813 -11.421875 9.75390625 C-17.76995288 7.89757438 -24.58167528 6.52722509 -31.05078125 8.68359375 C-32.94687447 9.6749909 -32.94687447 9.6749909 -35 12 C-35.58068255 15.16149389 -35.67009569 16.93573038 -33.9375 19.6875 C-29.32865715 22.80961935 -24.54526281 24.16348185 -19.1875 25.4375 C-3.16750831 29.33208445 -3.16750831 29.33208445 2 37 C4.39817248 41.79634495 3.34403641 47.89546204 1.8125 52.8125 C-1.70880572 59.0051411 -6.3947899 62.5633583 -13 65 C-26.22084771 67.74223627 -39.50988556 66.3578898 -51 59 C-50.45660208 54.43545749 -49.20536179 51.0271824 -47 47 C-46.00419922 47.52400391 -46.00419922 47.52400391 -44.98828125 48.05859375 C-44.10527344 48.51363281 -43.22226563 48.96867188 -42.3125 49.4375 C-41.44238281 49.88996094 -40.57226562 50.34242188 -39.67578125 50.80859375 C-34.80012375 52.97950694 -30.30247222 53.15893065 -25 53.1875 C-23.80375 53.20167969 -22.6075 53.21585938 -21.375 53.23046875 C-18.12304792 53.00840258 -15.91729469 52.39787037 -13 51 C-12.0636079 47.70054409 -12.0636079 47.70054409 -12 44 C-15.49762718 40.443091 -18.8530666 39.20644817 -23.625 38 C-44.38155985 32.42426094 -44.38155985 32.42426094 -48.8125 24.9375 C-50.86278298 19.41477243 -51.18821425 13.2510862 -49.15625 7.69140625 C-45.60044712 1.33660989 -40.33666799 -1.65249947 -33.75 -4.3125 C-22.17985684 -6.43369291 -10.78543118 -4.56841468 0 0 Z " fill="#203449" transform="translate(277,672)"/>
<path d="M0 0 C6.03463738 3.76353729 8.84999176 8.89497775 11.25 15.375 C12 19 12 19 12 28 C-1.2 28 -14.4 28 -28 28 C-24.83496027 34.60718229 -24.83496027 34.60718229 -19 38 C-12.51548523 38.85881222 -7.70168004 38.33756881 -2 35 C3.30479934 35 4.18982627 36.5362057 8 40 C6.60802671 43.38256721 5.1974504 44.83688682 2.0625 46.6875 C1.37285156 47.10386719 0.68320312 47.52023437 -0.02734375 47.94921875 C-4.4727158 50.3171496 -8.77598111 50.25294237 -13.6875 50.3125 C-14.46544922 50.34150391 -15.24339844 50.37050781 -16.04492188 50.40039062 C-21.95347 50.46445328 -25.97485715 49.04988748 -31 46 C-31.886875 45.46375 -32.77375 44.9275 -33.6875 44.375 C-40.38199823 37.49956939 -42.43303915 28.72851715 -42.33984375 19.4296875 C-41.66674039 12.6367593 -38.71600532 7.26688376 -33.75 2.625 C-23.07940314 -5.46993555 -11.85533356 -6.37562754 0 0 Z " fill="#22374A" transform="translate(474,687)"/>
<path d="M0 0 C6.13553562 4.27872878 11.03541757 10.03062962 12.5 17.5 C12.5 21.13 12.5 24.76 12.5 28.5 C-0.37 28.5 -13.24 28.5 -26.5 28.5 C-23.40105262 36.14357296 -23.40105262 36.14357296 -17.5 39.5 C-10.87772038 40.32257876 -5.87427415 39.8942287 -0.25390625 36.1796875 C1.5 35.5 1.5 35.5 3.609375 36.296875 C5.61122988 37.57078265 7.09463931 38.57687484 8.5 40.5 C8.24576107 43.17762277 7.84646984 44.21179303 5.7578125 45.94921875 C5.05398438 46.35785156 4.35015625 46.76648438 3.625 47.1875 C2.92632813 47.60386719 2.22765625 48.02023437 1.5078125 48.44921875 C-5.23683272 51.97900389 -15.9004747 51.77361317 -23.22265625 49.74609375 C-25.25 48.75 -25.25 48.75 -28.5 46.5 C-29.386875 45.96375 -30.27375 45.4275 -31.1875 44.875 C-37.53727035 38.35361423 -39.99935029 29.73210961 -39.90234375 20.83984375 C-38.99595007 13.31589623 -35.4594221 6.59669597 -29.5 1.875 C-21.0623188 -3.92590582 -8.99980567 -5.01807346 0 0 Z " fill="#57ADDA" transform="translate(784.5,686.5)"/>
<path d="M0 0 C3.87675334 3.15330241 5.36049619 6.87055108 6.92578125 11.56640625 C7.01108255 14.44335296 7.0416377 17.29540807 7.0234375 20.171875 C7.02202255 21.01107986 7.0206076 21.85028473 7.01914978 22.71492004 C7.0135534 25.39461841 7.0010016 28.07423315 6.98828125 30.75390625 C6.98326578 32.57096233 6.97870296 34.38801973 6.97460938 36.20507812 C6.96358516 40.65888638 6.94632303 45.11263214 6.92578125 49.56640625 C2.96578125 49.56640625 -0.99421875 49.56640625 -5.07421875 49.56640625 C-5.40421875 47.91640625 -5.73421875 46.26640625 -6.07421875 44.56640625 C-7.08484375 45.39140625 -8.09546875 46.21640625 -9.13671875 47.06640625 C-15.29242335 50.89589093 -22.08941661 50.64802229 -29.07421875 49.56640625 C-33.38321403 47.66667402 -36.0314709 45.17397585 -38.57421875 41.25390625 C-39.57454628 35.87714579 -39.86022484 31.42423884 -37.69921875 26.31640625 C-32.47885695 20.84745579 -27.57660075 18.53600559 -19.97265625 18.2578125 C-15.00125381 18.20389082 -10.03990816 18.33149372 -5.07421875 18.56640625 C-5.47175696 17.10274283 -5.89303259 15.64551275 -6.32421875 14.19140625 C-6.67226563 12.97324219 -6.67226563 12.97324219 -7.02734375 11.73046875 C-8.3107458 9.07746601 -9.3464773 8.552643 -12.07421875 7.56640625 C-18.55487932 6.61227458 -24.08159738 8.24396464 -30.07421875 10.56640625 C-31.06421875 10.89640625 -32.05421875 11.22640625 -33.07421875 11.56640625 C-36.05181309 5.37301002 -36.05181309 5.37301002 -36.13671875 2.31640625 C-34.11077759 -1.02043801 -30.5001 -2.07524398 -26.8515625 -2.9921875 C-17.72724379 -4.44232535 -8.1510966 -4.80846203 0 0 Z " fill="#56ADD9" transform="translate(692.07421875,687.43359375)"/>
<path d="M0 0 C4.95 0 9.9 0 15 0 C15.62829712 1.58252563 15.62829712 1.58252563 16.26928711 3.19702148 C17.81909131 7.09861406 19.37228037 10.99885155 20.92651367 14.89868164 C21.59964425 16.58906679 22.27184736 18.27982156 22.94311523 19.97094727 C23.90627277 22.39696695 24.87272149 24.82165233 25.83984375 27.24609375 C26.14091537 28.00651474 26.441987 28.76693573 26.75218201 29.55039978 C27.9502206 33.0323598 27.9502206 33.0323598 30 36 C30.38857178 34.94498291 30.77714355 33.88996582 31.17749023 32.80297852 C32.61530118 28.90139498 34.05672681 25.00115534 35.49926758 21.10131836 C36.1239587 19.41092986 36.74765937 17.72017501 37.37036133 16.02905273 C38.26385593 13.60304074 39.16086523 11.17835417 40.05859375 8.75390625 C40.3377916 7.99348526 40.61698944 7.23306427 40.90464783 6.44960022 C42.88612829 1.11387171 42.88612829 1.11387171 44 0 C46.35313555 -0.07271741 48.70833668 -0.08370868 51.0625 -0.0625 C52.35285156 -0.05347656 53.64320313 -0.04445313 54.97265625 -0.03515625 C55.97167969 -0.02355469 56.97070312 -0.01195312 58 0 C55.88636783 6.66843873 53.40214787 13.12853602 50.7265625 19.58984375 C50.32094086 20.57441055 49.91531921 21.55897736 49.49740601 22.57337952 C48.64335222 24.64386981 47.7877469 26.71372074 46.93066406 28.78295898 C45.63103573 31.92291742 44.33865858 35.0657918 43.046875 38.20898438 C42.2113746 40.23195141 41.37545095 42.25474371 40.5390625 44.27734375 C40.15867828 45.20369125 39.77829407 46.13003876 39.38638306 47.0844574 C31.50513351 66.04945755 31.50513351 66.04945755 23.1796875 71.10546875 C17.69635643 73.35579637 10.28174316 72.84342573 4.8125 70.6875 C2 69 2 69 1 66 C1.77734375 63.95703125 1.77734375 63.95703125 2.9375 61.8125 C3.50791016 60.73935547 3.50791016 60.73935547 4.08984375 59.64453125 C4.54037109 58.83048828 4.54037109 58.83048828 5 58 C5.680625 58.33 6.36125 58.66 7.0625 59 C10.6315661 60.21500122 13.25125498 60.408954 17 60 C19.56338689 58.52006844 19.56338689 58.52006844 21 56 C21.56449764 50.81052466 20.00317207 46.86639388 17.9296875 42.21484375 C17.61097687 41.47730362 17.29226624 40.73976349 16.96389771 39.97987366 C15.94439636 37.62785475 14.90984187 35.28280339 13.875 32.9375 C13.20215924 31.38909117 12.5302755 29.84026612 11.859375 28.29101562 C8.37391084 20.27014738 4.79195081 12.30665743 1.03564453 4.40844727 C0 2 0 2 0 0 Z " fill="#203448" transform="translate(527,684)"/>
<path d="M0 0 C3.68875982 2.26106119 7.00794598 4.8839634 10.1875 7.8125 C8.63146229 11.63186528 6.23145069 14.07294438 3.1875 16.8125 C2.5275 16.8125 1.8675 16.8125 1.1875 16.8125 C0.630625 16.214375 0.07375 15.61625 -0.5 15 C-4.81527679 10.91798142 -9.00713498 9.63160035 -14.8125 9.4375 C-22.26364629 9.69716116 -27.51584327 12.63622183 -32.8125 17.8125 C-35.63939474 22.41207932 -36.32914296 26.37801264 -36.25 31.6875 C-36.24242676 32.39495361 -36.23485352 33.10240723 -36.22705078 33.83129883 C-36.02314361 40.287119 -34.83617139 44.68372774 -30.3515625 49.32421875 C-24.72354007 54.30944674 -20.36375257 55.30622861 -12.99609375 55.20703125 C-6.77661977 54.43627435 -1.93416799 51.22694533 3.1875 47.8125 C5.4975 49.7925 7.8075 51.7725 10.1875 53.8125 C9.00583035 58.5391786 7.10498208 60.24419225 3.1875 62.8125 C-6.23560831 67.70338667 -16.03481248 69.81968641 -26.5 66.6875 C-36.76627404 62.65896209 -42.74323708 56.40073407 -47.91015625 46.765625 C-51.32831411 38.56204613 -51.33038591 27.77203931 -48.74609375 19.328125 C-44.28711484 9.75407763 -37.69334688 2.690349 -27.8125 -1.1875 C-19.69984384 -3.89171872 -7.68665405 -3.7608016 0 0 Z " fill="#54ABDA" transform="translate(637.8125,670.1875)"/>
<path d="M0 0 C2.95855099 2.02330657 4.9544747 3.7949933 6.953125 6.79296875 C6.82421875 8.83984375 6.82421875 8.83984375 5.953125 10.79296875 C4.17578125 12.05859375 4.17578125 12.05859375 2.015625 13.04296875 C1.30535156 13.378125 0.59507812 13.71328125 -0.13671875 14.05859375 C-2.046875 14.79296875 -2.046875 14.79296875 -4.046875 14.79296875 C-5.40120175 13.48096471 -6.73420982 12.14665471 -8.046875 10.79296875 C-12.24258096 8.69511577 -17.48908284 9.24530347 -22.046875 9.79296875 C-25.26051464 11.83683715 -25.26051464 11.83683715 -27.046875 14.79296875 C-27.6965625 15.69015625 -27.6965625 15.69015625 -28.359375 16.60546875 C-30.30932392 22.80985168 -29.12453441 27.52715517 -26.3125 33.12890625 C-24.1539893 35.9669481 -21.93028935 36.66619479 -18.4609375 37.1640625 C-13.08230701 37.46314906 -13.08230701 37.46314906 -8.20703125 35.6015625 C-7.72105469 35.12847656 -7.23507812 34.65539062 -6.734375 34.16796875 C-5.8475 33.38421875 -4.960625 32.60046875 -4.046875 31.79296875 C0.16461141 32.48055837 3.39576337 34.49114652 6.953125 36.79296875 C5.58111059 41.9761343 2.2494238 44.85702107 -2.046875 47.79296875 C-6.56284823 50.18044564 -10.86777796 50.15972499 -15.859375 50.16796875 C-16.62830078 50.19246094 -17.39722656 50.21695313 -18.18945312 50.2421875 C-25.48316521 50.27911769 -31.55290906 47.834054 -36.796875 42.66796875 C-42.05795213 36.99756296 -44.22135187 30.57686189 -44.671875 22.91796875 C-44.37495563 15.23765425 -41.46312369 8.42407585 -36.18359375 2.8125 C-25.68976516 -5.70453522 -11.66140802 -6.87667 0 0 Z " fill="#21364B" transform="translate(392.046875,687.20703125)"/>
<path d="M0 0 C4.62 0 9.24 0 14 0 C14 4.62 14 9.24 14 14 C18.29 14 22.58 14 27 14 C27 17.3 27 20.6 27 24 C22.71 24 18.42 24 14 24 C14.11356669 28.43806659 14.24032829 32.87506727 14.375 37.3125 C14.4059375 38.57513672 14.436875 39.83777344 14.46875 41.13867188 C14.50742187 42.34716797 14.54609375 43.55566406 14.5859375 44.80078125 C14.63306885 46.47394409 14.63306885 46.47394409 14.68115234 48.1809082 C14.805249 51.20368786 14.805249 51.20368786 17 54 C19.43693311 54.36416047 19.43693311 54.36416047 22.125 54.1875 C23.49011719 54.14689453 23.49011719 54.14689453 24.8828125 54.10546875 C25.58148437 54.07066406 26.28015625 54.03585937 27 54 C30 60.625 30 60.625 30 64 C25.78626681 66.02194491 22.21416919 66.3281554 17.5625 66.375 C16.28503906 66.40335938 15.00757813 66.43171875 13.69140625 66.4609375 C8.75497713 65.84453683 5.9368633 64.35085224 2.74926758 60.48193359 C-1.29538511 53.93531451 -0.43891612 46.41859088 -0.25 39 C-0.22989985 37.63934927 -0.21165529 36.2786698 -0.1953125 34.91796875 C-0.1484085 31.611237 -0.08277725 28.30599584 0 25 C-2.64 25 -5.28 25 -8 25 C-8 21.37 -8 17.74 -8 14 C-5.36 14 -2.72 14 0 14 C0 9.38 0 4.76 0 0 Z " fill="#203548" transform="translate(497,671)"/>
<path d="M0 0 C-0.35247843 10.22187449 -4.18260752 21.17727593 -11.35546875 28.671875 C-17.32836628 33.49559272 -24.35095939 35.8122875 -32 35 C-34.78962676 34.18537215 -37.31989656 33.14861576 -40 32 C-36.02373726 23.3975085 -29.31554165 18.20138381 -21 14 C-20.01 13.67 -19.02 13.34 -18 13 C-28.29501573 14.66048641 -35.74236264 19.89652891 -44 26 C-44.36445586 18.95385339 -43.45819276 14.94983131 -38.8125 9.375 C-31.88132571 3.52200837 -25.74790925 2.42300757 -16.8125 2.375 C-14.88138373 2.34937138 -12.95035322 2.31578589 -11.01953125 2.2734375 C-10.17495361 2.26747559 -9.33037598 2.26151367 -8.46020508 2.25537109 C-5.52524916 1.95072051 -2.81094716 0 0 0 Z " fill="#9EC05F" transform="translate(831,654)"/>
<path d="M0 0 C3.96 0 7.92 0 12 0 C12.33 2.31 12.66 4.62 13 7 C13.48210938 6.57847656 13.96421875 6.15695312 14.4609375 5.72265625 C15.09257813 5.17480469 15.72421875 4.62695312 16.375 4.0625 C17.31472656 3.24458984 17.31472656 3.24458984 18.2734375 2.41015625 C22.07521901 -0.69491869 25.24421109 -0.07670627 30 0 C30 3.63 30 7.26 30 11 C28.63875 11.061875 27.2775 11.12375 25.875 11.1875 C20.76905052 11.73514127 18.5495943 13.36166584 15 17 C13.4725361 20.0549278 13.76008168 23.2763314 13.68359375 26.6328125 C13.66281265 27.38464813 13.64203156 28.13648376 13.62062073 28.91110229 C13.55517295 31.31564085 13.49626262 33.72028967 13.4375 36.125 C13.39431023 37.75391771 13.35069579 39.38282422 13.30664062 41.01171875 C13.19949649 45.00769915 13.09821567 49.00379059 13 53 C8.71 53 4.42 53 0 53 C0 35.51 0 18.02 0 0 Z " fill="#5CB0DA" transform="translate(712,684)"/>
<path d="M0 0 C4.62 0 9.24 0 14 0 C14 17.49 14 34.98 14 53 C9.38 53 4.76 53 0 53 C0 35.51 0 18.02 0 0 Z " fill="#25394C" transform="translate(408,684)"/>
<path d="M0 0 C4.2156256 2.35737169 7.2305187 5.48534212 9 10 C9.68781032 15.2945399 9.65484652 19.69030695 7.25 24.5 C3.3991592 28.778712 0.52557421 30.76173828 -5.3125 31.3125 C-10.49723861 30.87311537 -13.41601755 28.80246279 -16.8125 24.9375 C-19.7937072 20.0734251 -19.94422979 14.5080071 -19 9 C-14.28824849 1.21697591 -8.97121401 -1.43485785 0 0 Z " fill="#F7F8F8" transform="translate(319,695)"/>
<path d="M0 0 C4.14513913 1.71212268 6.58115564 4.23735322 9 8 C9 9.65 9 11.3 9 13 C0.09 13 -8.82 13 -18 13 C-16.81179659 4.68257613 -16.81179659 4.68257613 -12.16796875 1.1015625 C-8.18389362 -0.92277838 -4.32736 -0.73594558 0 0 Z " fill="#F8FCFC" transform="translate(776,694)"/>
<path d="M0 0 C1.18239258 0.02707031 1.18239258 0.02707031 2.38867188 0.0546875 C4.32214261 0.10155952 6.25498285 0.1732959 8.1875 0.25 C8.47827103 6.69287383 8.47827103 6.69287383 7.1640625 9.2109375 C3.21747393 13.34002727 1.46516944 14.41853121 -4.1875 14.5625 C-7.77058257 14.52023559 -9.39732349 14.50103696 -12.5 12.625 C-14.23193247 9.49102696 -14.4737339 7.7765808 -13.8125 4.25 C-9.57979416 -0.38264654 -5.8604132 -0.25544131 0 0 Z " fill="#F5FBFB" transform="translate(678.8125,713.75)"/>
<path d="M0 0 C2.89521497 1.54661207 5.12949519 3.2944484 7 6 C7.33 7.98 7.66 9.96 8 12 C-0.58 12 -9.16 12 -18 12 C-16.8737819 5.24269142 -16.8737819 5.24269142 -14.0625 3.1875 C-9.31904875 -0.20067946 -5.78184678 -0.99036527 0 0 Z " fill="#F7F8F8" transform="translate(464,694)"/>
<path d="M0 0 C3.73400421 2.07444678 4.78947087 3.35671654 6.125 7.4375 C6 11 6 11 4.0625 13.9375 C0.69263984 16.20699766 -1.08280833 16.75960359 -5.05859375 16.48046875 C-8.59076718 15.60630913 -10.0401344 13.97140914 -12 11 C-12.15129568 6.68807302 -11.70478473 4.78533156 -8.8125 1.5625 C-5.45611204 -0.30215998 -3.7822566 -0.6303761 0 0 Z " fill="#283C50" transform="translate(418,660)"/>
<path d="M0 0 C0 3.83764027 -1.26535335 5.11486085 -3.5 8.1875 C-4.1496875 9.08855469 -4.799375 9.98960937 -5.46875 10.91796875 C-5.9740625 11.60503906 -6.479375 12.29210937 -7 13 C-7.33 12.34 -7.66 11.68 -8 11 C-13.96348734 16.05352742 -19.53105379 21.41711741 -25 27 C-25.66 26.67 -26.32 26.34 -27 26 C-18.55249027 16.60903988 -9.92727731 7.86128309 0 0 Z " fill="#55AED3" transform="translate(410,336)"/>
<path d="M0 0 C0.99 0.33 1.98 0.66 3 1 C-0.3 3.97 -3.6 6.94 -7 10 C-7.66 9.67 -8.32 9.34 -9 9 C-7.25 6 -7.25 6 -5 3 C-3.68 3 -2.36 3 -1 3 C-0.67 2.01 -0.34 1.02 0 0 Z " fill="#77B770" transform="translate(624,548)"/>
<path d="M0 0 C0 2 0 2 -1.6796875 3.69140625 C-2.40414062 4.30886719 -3.12859375 4.92632813 -3.875 5.5625 C-4.59429687 6.18253906 -5.31359375 6.80257812 -6.0546875 7.44140625 C-8 9 -8 9 -10 10 C-9.9375 7.8125 -9.9375 7.8125 -9 5 C-6.43314355 2.61372642 -3.61081552 0 0 0 Z " fill="#253D4C" transform="translate(240,670)"/>
<path d="M0 0 C0.33 0 0.66 0 1 0 C0.38461538 7.50769231 0.38461538 7.50769231 -1.5625 10 C-2.2740625 10.495 -2.2740625 10.495 -3 11 C-3.99 10.67 -4.98 10.34 -6 10 C-5.02526874 8.33073546 -4.04510211 6.66464358 -3.0625 5 C-2.24458984 3.6078125 -2.24458984 3.6078125 -1.41015625 2.1875 C-0.71212891 1.1046875 -0.71212891 1.1046875 0 0 Z " fill="#1D303E" transform="translate(278,719)"/>
<path d="M0 0 C0.66 0.33 1.32 0.66 2 1 C2 1.99 2 2.98 2 4 C4.64 4.66 7.28 5.32 10 6 C10 6.33 10 6.66 10 7 C8.58376784 7.05447047 7.16691809 7.09300508 5.75 7.125 C4.96109375 7.14820313 4.1721875 7.17140625 3.359375 7.1953125 C0.79268059 6.9828378 -0.7916067 6.28654105 -3 5 C-1.125 1.125 -1.125 1.125 0 0 Z " fill="#87B66B" transform="translate(794,681)"/>
<path d="M0 0 C3 0 6 0 9 0 C6.51047079 2.66735273 4.36591866 4.55746343 1 6 C0.67 4.02 0.34 2.04 0 0 Z " fill="#243E59" transform="translate(326,729)"/>
<path d="M0 0 C1.98 1.65 3.96 3.3 6 5 C5.67 5.66 5.34 6.32 5 7 C2.37812506 5.95125002 1.20628639 5.35068687 -0.25 2.875 C-0.4975 2.25625 -0.745 1.6375 -1 1 C-0.67 0.67 -0.34 0.34 0 0 Z " fill="#183044" transform="translate(354,724)"/>
</svg>
